<?xml version="1.0" encoding="iso-8859-1"?>
<!-- Generator: Adobe Illustrator 19.0.0, SVG Export Plug-In . SVG Version: 6.00 Build 0)  -->
<svg xmlns="http://www.w3.org/2000/svg" xmlns:xlink="http://www.w3.org/1999/xlink" version="1.1" id="Layer_1" x="0px" y="0px" viewBox="0 0 512.002 512.002" style="enable-background:new 0 0 512.002 512.002;" xml:space="preserve" width="512px" height="512px">
<g>
	<g>
		<path d="M384.153,189.421c-2.052-4.445-7.317-6.384-11.763-4.334c-4.445,2.052-6.386,7.318-4.334,11.763    c14.212,30.797,21.724,64.783,21.724,98.285c0,29.342-5.528,58.241-16.429,85.896c-1.795,4.554,0.441,9.701,4.996,11.496    c1.067,0.421,2.166,0.619,3.249,0.619c3.534,0,6.874-2.129,8.248-5.615c11.721-29.733,17.664-60.82,17.664-92.397    C407.508,259.086,399.432,222.53,384.153,189.421z" fill="#FFFFFF"/>
	</g>
</g>
<g>
	<g>
		<path d="M476.925,262.461c-0.668-4.85-5.139-8.241-9.99-7.571c-4.85,0.668-8.24,5.141-7.571,9.99    c1.367,9.93,2.061,20.109,2.061,30.253c0,93.424-58.226,170.796-133.315,182.358c13.779-12.083,26.73-26.983,38.04-44.178    c2.69-4.09,1.555-9.586-2.535-12.276c-4.09-2.691-9.586-1.555-12.276,2.535c-27.769,42.225-67.116,69.972-100.246,70.691    c-0.455,0.009-0.91,0.011-1.363,0.009c-109.815,0-199.156-89.336-199.156-199.145c0-30.044,6.519-58.909,19.376-85.794    c2.112-4.417,0.245-9.709-4.172-11.821s-9.71-0.245-11.821,4.173c-14.007,29.291-21.109,60.73-21.109,93.442    c0,119.584,97.294,216.873,216.884,216.873c0.586,0,1.171,0,1.752-0.014c16.387-0.356,33.561-5.799,50.292-15.452    c2.24,0.105,4.512,0.177,6.825,0.177c94.045,0,170.555-90.428,170.555-201.579C479.153,284.183,478.403,273.19,476.925,262.461z" fill="#FFFFFF"/>
	</g>
</g>
<g>
	<g>
		<path d="M470.468,231.436c-22.302-79.283-83.285-133.547-153.376-137.625c-2.561-30.381-18.801-55.866-47.375-74.079    C246.773,5.106,224.031,0.373,223.074,0.178c-4.794-0.97-9.476,2.125-10.451,6.922c-0.974,4.797,2.125,9.476,6.922,10.451    c0.141,0.028,9.983,2.08,22.76,7.66c-0.733,0.882-1.3,1.898-1.648,3.005c-0.059,0.182-0.112,0.366-0.158,0.552    c-0.069,0.273-0.17,0.501-0.326,0.739c-0.011,0.017-0.021,0.034-0.033,0.051c-0.021,0.033-0.044,0.066-0.065,0.099    c-3.617,5.681-20.97,10.37-37.754,14.905c-19.403,5.243-43.551,11.767-65.163,23.742c-4.282,2.373-5.83,7.767-3.457,12.049    c2.372,4.283,7.768,5.83,12.049,3.457c19.727-10.932,41.758-16.883,61.195-22.135c10.169-2.748,19.38-5.239,27.118-8.175    c-10.606,35.125-29.86,49.337-51.645,65.396c-2.002,1.476-4.012,2.959-6.026,4.465h-17.893c-4.895,0-8.864,3.969-8.864,8.864    c0,3.882,2.5,7.173,5.974,8.372c-6.042,5.784-11.9,12.336-17.378,20.18c-14.559,20.846-23.007,47.727-25.111,79.897    c-0.32,4.885,3.381,9.104,8.267,9.423c0.197,0.013,0.392,0.02,0.587,0.02c4.632,0,8.53-3.598,8.837-8.286    c0.799-12.223,2.593-23.532,5.344-33.902c1.703,2.189,4.3,3.429,6.987,3.429c1.375,0,2.769-0.32,4.074-0.997    c4.346-2.254,6.042-7.604,3.788-11.95l-6.698-12.914c2.493-5.199,5.313-10.06,8.46-14.566    c11.731-16.798,25.546-26.982,40.172-37.764c3.303-2.435,6.621-4.88,9.916-7.41v0.695c0,4.895,3.969,8.864,8.864,8.864    c4.895,0,8.864-3.969,8.864-8.864v-15.967c12.15-12.127,22.933-27.644,30.166-51c8.85,28.843,16.336,77.343-15.514,114.431    c-23.095,26.89-46.75,42.279-67.62,55.856c-19.015,12.371-36.058,23.458-45.677,40.056c-5.227-8.864-11.847-21.451-17.424-36.341    c-14.652-39.119-15.269-74.305-1.832-104.58c4.427-9.977,10.571-18.961,18.262-26.698c3.451-3.472,3.435-9.085-0.038-12.535    c-3.472-3.451-9.084-3.433-12.535,0.038c-9.22,9.276-16.586,20.044-21.892,32.005c-15.17,34.182-14.674,74.982,1.435,117.989    c11.981,31.997,28.215,53.852,28.9,54.766c1.695,2.263,4.339,3.55,7.094,3.55c0.632,0,1.271-0.069,1.904-0.207    c3.396-0.747,6.041-3.41,6.765-6.81c4.28-20.073,21.236-31.104,44.704-46.372c20.785-13.522,46.654-30.352,71.402-59.168    c22.577-26.291,28.349-57.063,27.183-84.475c23.597,8.649,47.724,28,67.701,54.652c1.742,2.324,4.404,3.548,7.099,3.548    c1.85,0,3.716-0.577,5.309-1.772c3.917-2.936,4.713-8.492,1.776-12.41c-9.138-12.192-19.147-23.018-29.648-32.225    c57.395,8.84,106.388,56.22,125.3,123.452c1.1,3.911,4.657,6.466,8.528,6.466c0.794,0,1.603-0.108,2.405-0.333    C469.048,241.042,471.794,236.148,470.468,231.436z M273.932,81.741c-3.176-20.321-9.278-37.243-13.225-46.72    c22.682,14.626,35.573,33.838,38.42,57.222C290.769,87.647,282.319,84.102,273.932,81.741z" fill="#FFFFFF"/>
	</g>
</g>
<g>
</g>
<g>
</g>
<g>
</g>
<g>
</g>
<g>
</g>
<g>
</g>
<g>
</g>
<g>
</g>
<g>
</g>
<g>
</g>
<g>
</g>
<g>
</g>
<g>
</g>
<g>
</g>
<g>
</g>
</svg>
